# xmcd
#
# Track frame offsets: 
#        150
#        21922
#        44249
#        66355
#        86977
#        106295
#        127468
#        147517
#        167335
#        186852
#        209257
#        229501
#        245801
#        266218
#        284108
#
# Disc length: 4009 seconds
#
# Revision: 1
# Processed by: cddbd v1.5.2PL0 Copyright (c) Steve Scherf et al.
# Submitted via: ExactAudioCopyFreeDBPlugin 1.0
#
DISCID=fa0fa70f
DTITLE=群星 - TEST-CD试音极品28CDB
DYEAR=2015
DGENRE=Acid
TTITLE0=如果没有你
TTITLE1=你把我灌醉
TTITLE2=祝你一路順風
TTITLE3=往事隨風
TTITLE4=朋友别哭
TTITLE5=愛你十分淚七分
TTITLE6=夢醒時分
TTITLE7=單身情歌
TTITLE8=囚鳥
TTITLE9=過火
TTITLE10=味道
TTITLE11=光陰的故事
TTITLE12=從開始到現在
TTITLE13=只要你過得比我好
TTITLE14=其實你不懂我的心
EXTD=
EXTT0=
EXTT1=
EXTT2=
EXTT3=
EXTT4=
EXTT5=
EXTT6=
EXTT7=
EXTT8=
EXTT9=
EXTT10=
EXTT11=
EXTT12=
EXTT13=
EXTT14=
PLAYORDER=
